<?xml version="1.0" standalone="no"?><!DOCTYPE svg PUBLIC "-//W3C//DTD SVG 1.1//EN" "http://www.w3.org/Graphics/SVG/1.1/DTD/svg11.dtd"><svg t="1575258914017" class="icon" viewBox="0 0 1024 1024" version="1.1" xmlns="http://www.w3.org/2000/svg" p-id="4183" width="16" height="16" xmlns:xlink="http://www.w3.org/1999/xlink"><defs><style type="text/css"></style></defs><path d="M941.520198 503.671861v8.77647A73.624832 73.624832 0 0 1 926.405166 536.339833l-21.453593 31.692808 10.726796 37.056207a69.236597 69.236597 0 0 1 2.437909 14.62745 64.848362 64.848362 0 0 1-12.677124 38.518952l-21.453593 32.18039 10.726797 37.056206a44.369932 44.369932 0 0 1 0 10.239215 74.112413 74.112413 0 0 1-13.164705 44.857514l-18.040522 28.767318 5.85098 28.767318v3.900653a90.69019 90.69019 0 0 1 0 27.792155 68.261433 68.261433 0 0 1-14.139868 38.03137 72.162087 72.162087 0 0 1-35.10588 23.40392 181.867962 181.867962 0 0 1-56.559473 7.313725H292.549V497.3333a195.032667 195.032667 0 0 0 82.888883-70.21176C396.891476 390.065333 417.369906 356.90978 438.8235 322.779063L453.938531 292.549l8.77647-15.115032a97.516333 97.516333 0 0 0 13.652287-57.534636V154.563388v-41.932023a19.015685 19.015685 0 0 1 0-10.726797 26.32941 26.32941 0 0 1 11.214378-10.239215 78.500648 78.500648 0 0 1 37.056207-9.264051 94.103262 94.103262 0 0 1 35.593462 7.801306 26.816992 26.816992 0 0 1 16.090195 18.040522l10.239215 27.304573c10.239215 26.816992 18.528103 48.758167 26.816991 72.162087a179.430053 179.430053 0 0 1 2.92549 94.103261c-2.92549 15.602613-5.85098 31.205227-8.77647 48.758167l-15.602613 97.516333h295.962071a97.516333 97.516333 0 0 1 29.742482 4.875817c9.264052 3.413072 18.040522 9.264052 23.40392 30.230063a37.543788 37.543788 0 0 1 0 6.338562z m-731.3725 438.8235H82.401302v-421.27056h127.746396zM1023.921499 470.028726v-7.801306a117.507182 117.507182 0 0 0-76.06274-87.7647 176.992145 176.992145 0 0 0-56.559473-9.264052H687.49015c2.437908-16.090195 5.363398-31.205227 8.288888-48.758167a258.905865 258.905865 0 0 0-5.85098-137.010448c-8.77647-25.354247-18.528103-48.758167-27.792155-75.087576l-10.239215-26.816992A108.730712 108.730712 0 0 0 590.461398 14.62745a167.240512 167.240512 0 0 0-66.798688-14.62745 161.389532 161.389532 0 0 0-75.575159 19.015685A99.954242 99.954242 0 0 0 390.065333 113.606528v112.143784a19.015685 19.015685 0 0 1 0 11.214378l-25.354247 43.394768c-19.503267 34.130717-39.981697 69.236597-60.460126 102.879732A140.42352 140.42352 0 0 1 211.610443 438.8235H82.401302A82.401302 82.401302 0 0 0 0 521.224801v420.782978A82.401302 82.401302 0 0 0 82.401302 1023.921499H770.379033a261.343773 261.343773 0 0 0 82.401301-11.214378A148.712408 148.712408 0 0 0 958.097974 877.646999a179.430053 179.430053 0 0 0-2.92549-48.758166 155.538552 155.538552 0 0 0 25.841829-97.516333 135.060122 135.060122 0 0 0-4.875817-27.792155 146.2745 146.2745 0 0 0 26.32941-87.7647 155.05097 155.05097 0 0 0-5.363398-33.643135 154.563388 154.563388 0 0 0 22.428756-48.758167l4.388235-5.85098v-48.758167z" fill="#5E5C5C" p-id="4184"></path></svg>